<?xml version="1.0" standalone="no"?><!DOCTYPE svg PUBLIC "-//W3C//DTD SVG 1.1//EN" "http://www.w3.org/Graphics/SVG/1.1/DTD/svg11.dtd"><svg t="1727748887801" class="icon" viewBox="0 0 2123 1024" version="1.1" xmlns="http://www.w3.org/2000/svg" p-id="13576" xmlns:xlink="http://www.w3.org/1999/xlink" width="414.6484375" height="200"><path d="M2102.847755 387.812364c-15.238027-64.761616-53.333095-129.523231-110.475697-163.808793-68.571122-41.904575-159.999286-34.285561-224.760902 11.428521s-102.856684 129.523231-95.23767 205.713367c11.42852-49.523588 41.904575-95.23767 87.618657-121.904218 26.666548-15.238027 60.952109-26.666548 91.428163-22.85704 60.952109 7.619014 106.66619 60.952109 118.094711 118.094711 11.42852 57.142602-11.42852 118.094711-49.523588 163.808792-38.095068 45.714082-95.23767 72.380629-148.570766 91.428163-118.094711 38.095068-255.236956 26.666548-365.712653-26.666547 64.761616-83.80915 110.475697-182.856327 118.094711-285.71301 7.619014-102.856684-26.666548-213.332381-106.66619-285.713011-87.618656-79.999643-228.570408-95.23767-331.427092-34.285561-102.856684 60.952109-159.999286 186.665833-137.142245 304.760544 3.809507-11.42852 7.619014-22.857041 7.619014-30.476054 7.619014-30.476054 26.666548-60.952109 45.714081-83.80915 57.142602-68.571122 159.999286-110.475697 243.808436-72.380629C1333.327381 197.337024 1363.803435 315.431735 1333.327381 406.859898c-34.285561 91.428163-118.094711 156.189779-205.713367 194.284847-102.856684 41.904575-217.141888 57.142602-327.617585 38.095068-3.809507 0-7.619014 0-11.428521-3.809507-3.809507-7.619014 0-15.238027 3.809507-22.857041 60.952109-118.094711 57.142602-281.903503-45.714082-365.712653-22.857041-19.047534-45.714082-30.476054-72.380629-38.095068-114.285204-34.285561-232.379915 26.666548-274.28449 137.142245l-11.42852 45.714082v30.476054c0 3.809507 3.809507 19.047534 0 22.857041 30.476054-57.142602 68.571122-121.904218 133.332738-137.142245 68.571122-15.238027 140.951752 38.095068 159.999286 106.666191s-11.42852 144.761259-64.761616 190.47534-121.904218 72.380629-190.47534 83.809149c-144.761259 22.857041-300.951037-15.238027-419.045748-99.047177v3.809507c60.952109 102.856684 167.618299 171.427806 281.903503 198.094354 118.094711 26.666548 239.998929 11.42852 354.284133-30.476054 15.238027-7.619014 34.285561-11.42852 49.523588-11.428521 19.047534 0 38.095068 7.619014 53.333095 15.238027 190.47534 72.380629 411.426735 57.142602 586.664048-45.714081 7.619014-3.809507 11.42852-7.619014 19.047534-7.619014 15.238027-3.809507 26.666548 7.619014 38.095068 11.428521 118.094711 72.380629 262.855969 99.047177 399.998214 76.190136 79.999643-11.42852 156.189779-41.904575 213.332381-99.047177 83.80915-79.999643 121.904218-201.903861 99.047177-312.379558z" fill="#2BD2FA" p-id="13577"></path><path d="M1329.517874 841.143673c-118.094711 110.475697-198.094354 144.761259-384.760187 91.428164-140.951752-38.095068-251.427449-114.285204-251.427449-114.285204-15.238027-11.42852-34.285561-7.619014-49.523588 3.809506-83.80915 87.618656-175.237313 129.523231-262.85597 125.713725-152.380272-7.619014-281.903503-137.142245-316.189064-156.189779-19.047534-7.619014 125.713724 220.951395 312.379557 228.570408 125.713724 7.619014 205.713367-60.952109 304.760545-125.713724 99.047177 83.80915 239.998929 129.523231 369.52216 125.713724 144.761259-7.619014 278.093997-76.190136 339.046105-228.570408 3.809507-15.238027-49.523588 38.095068-60.952109 49.523588z" fill="#2BD2FA" p-id="13578"></path></svg>